<?xml version="1.0" standalone="no"?>
<!DOCTYPE svg PUBLIC "-//W3C//DTD SVG 20010904//EN"
 "http://www.w3.org/TR/2001/REC-SVG-20010904/DTD/svg10.dtd">
<svg version="1.0" xmlns="http://www.w3.org/2000/svg"
 width="292.000000pt" height="331.000000pt" viewBox="0 0 292.000000 331.000000"
 preserveAspectRatio="xMidYMid meet">

<g transform="translate(0.000000,331.000000) scale(0.100000,-0.100000)"
fill="#000000" stroke="none">
<path d="M1702 3143 c-28 -42 -104 -178 -149 -268 -58 -117 -248 -354 -364
-454 l-50 -43 20 -22 c24 -26 45 -105 39 -148 -3 -17 1 -43 8 -57 16 -29 19
-151 5 -151 -11 0 -103 68 -113 84 -4 5 -4 24 -2 41 l5 30 -15 -27 c-9 -15
-32 -32 -52 -38 -41 -14 -118 -5 -148 16 -30 21 -36 18 -36 -17 0 -21 8 -37
23 -49 33 -26 77 -122 77 -167 0 -22 5 -44 10 -49 15 -15 41 -124 35 -145 -7
-22 -32 -31 -93 -31 -57 0 -75 20 -66 70 6 33 6 35 -18 29 -35 -9 -62 13 -56
46 4 23 2 27 -18 27 -12 0 -29 9 -37 21 -10 13 -23 19 -39 17 -19 -2 -22 1
-20 20 3 22 -12 30 -23 12 -10 -16 -28 -12 -22 5 9 23 -11 28 -38 11 -22 -15
-25 -15 -25 -1 0 20 -19 19 -42 -1 -15 -14 -20 -15 -34 -3 -14 11 -19 10 -34
-9 -21 -26 -30 -28 -30 -7 0 8 -4 15 -8 15 -17 0 -32 -25 -32 -52 0 -31 -15
-36 -41 -12 -16 14 -18 14 -24 -5 -3 -11 -1 -30 5 -41 15 -28 3 -43 -27 -35
-23 5 -24 4 -18 -25 6 -27 2 -36 -29 -66 -25 -24 -36 -44 -36 -63 0 -31 -34
-81 -55 -81 -18 0 -29 -68 -14 -86 6 -8 20 -14 30 -14 10 0 21 -4 24 -10 3 -5
11 -10 17 -10 7 0 6 5 -2 15 -10 11 -9 17 3 29 13 14 16 14 27 1 7 -8 17 -15
22 -15 6 0 5 6 -2 15 -9 11 -9 17 2 28 38 38 98 50 98 19 0 -10 -4 -22 -9 -28
-15 -16 -23 -54 -12 -54 6 0 11 7 11 15 0 8 5 15 11 15 12 0 1 -43 -12 -48
-28 -11 34 -52 78 -52 14 0 13 3 -6 16 -33 23 -11 41 23 19 31 -21 35 -6 5 21
-19 17 -21 26 -14 96 4 53 2 89 -6 113 -12 31 -11 38 7 62 12 16 40 34 63 42
40 13 44 12 89 -16 122 -75 160 -195 131 -407 -11 -74 -10 -86 10 -136 44
-116 159 -223 280 -261 31 -9 94 -22 140 -27 46 -6 88 -15 94 -21 6 -6 27 -41
47 -78 37 -70 66 -97 54 -49 -8 32 2 33 34 4 20 -18 24 -19 19 -6 -8 23 12 23
30 1 11 -14 16 -15 20 -5 4 10 10 10 28 -2 13 -9 26 -12 29 -7 8 12 69 5 102
-12 45 -24 173 -153 189 -189 12 -30 23 -43 67 -85 7 -7 27 -26 43 -43 19 -19
40 -30 57 -30 15 0 38 -5 51 -11 18 -8 30 -8 43 0 11 6 13 11 7 11 -18 0 -16
20 4 42 20 22 12 33 -15 19 -26 -14 -33 -4 -20 25 14 30 1 46 -16 21 -14 -18
-46 -24 -46 -8 0 5 5 22 10 37 12 32 6 42 -15 24 -12 -10 -15 -10 -15 0 0 7
-8 10 -18 8 -26 -7 -39 18 -53 97 -7 41 -20 76 -34 93 -24 29 -57 88 -74 135
-6 15 -18 27 -28 27 -25 0 -103 31 -103 41 0 5 29 6 64 4 85 -6 147 -36 281
-141 60 -47 139 -103 175 -125 139 -82 295 -124 434 -117 74 4 90 9 174 53 50
27 92 52 92 57 0 5 -9 4 -20 -2 -11 -6 -43 -10 -70 -9 -39 2 -55 -2 -72 -19
-28 -26 -77 -45 -96 -37 -8 3 -21 0 -28 -6 -24 -20 -111 -11 -198 20 -105 36
-213 108 -297 200 -37 39 -71 71 -77 71 -6 0 -14 9 -17 20 -3 11 -13 20 -21
20 -7 0 -19 9 -26 20 -7 11 -20 20 -29 20 -8 0 -25 11 -37 25 -12 14 -30 25
-41 25 -11 0 -21 9 -24 22 -5 18 -8 19 -21 8 -20 -16 -48 4 -39 27 5 12 2 15
-13 11 -10 -3 -25 -7 -33 -9 -8 -2 -17 6 -21 21 -4 18 -12 24 -26 22 -53 -9
-59 -7 -57 16 3 26 -13 29 -39 5 -16 -15 -21 -15 -28 -3 -5 9 -5 19 2 27 16
20 0 29 -24 14 -19 -12 -23 -11 -35 5 -7 10 -13 21 -13 26 0 4 -14 5 -31 1
-63 -12 -101 35 -101 125 0 50 23 109 47 118 18 7 65 -18 120 -66 41 -36 65
-49 65 -35 0 14 -26 62 -41 75 -21 18 -45 100 -36 124 13 34 123 50 147 21 13
-16 50 -21 50 -7 0 4 -14 24 -31 45 -56 69 -50 116 34 243 85 129 286 324 333
324 10 0 25 -6 33 -14 11 -10 29 -12 61 -7 l45 7 -102 52 c-62 31 -109 62
-120 78 -38 59 -23 210 34 331 16 34 61 58 91 49 16 -6 21 -1 25 26 2 18 4 34
3 35 -1 1 -32 -9 -69 -22 -108 -40 -153 -31 -216 41 -37 41 -94 161 -105 217
-12 64 20 145 59 151 27 4 30 86 4 86 -10 0 -26 -12 -37 -27z m-70 -2350 c36
-22 95 -99 85 -110 -3 -2 -27 15 -55 39 -28 24 -68 58 -91 76 -77 62 -40 59
61 -5z"/>
</g>
</svg>
