<?xml version="1.0" standalone="no"?>
<!DOCTYPE svg PUBLIC "-//W3C//DTD SVG 20010904//EN"
 "http://www.w3.org/TR/2001/REC-SVG-20010904/DTD/svg10.dtd">
<svg version="1.0" xmlns="http://www.w3.org/2000/svg"
 width="225.000000pt" height="225.000000pt" viewBox="0 0 225.000000 225.000000"
 preserveAspectRatio="xMidYMid meet">

<g transform="translate(0.000000,225.000000) scale(0.100000,-0.100000)"
fill="#000000" stroke="none">
<path d="M950 1774 c-151 -40 -256 -127 -325 -268 -68 -141 -68 -151 -1 -88
80 75 151 106 246 106 110 0 159 -26 305 -163 128 -121 195 -167 295 -202 57
-21 84 -24 215 -24 131 0 158 3 217 23 84 29 144 69 208 139 48 53 111 166
126 228 7 29 5 28 -52 -24 -84 -78 -144 -103 -245 -103 -114 0 -156 24 -314
172 -136 128 -210 174 -330 205 -76 19 -270 19 -345 -1z"/>
<path d="M415 1110 c-180 -36 -323 -164 -385 -345 -11 -32 -20 -60 -20 -63 0
-3 25 18 55 47 78 74 150 105 246 105 106 0 161 -29 291 -153 165 -156 224
-194 349 -225 76 -19 252 -21 331 -5 151 31 279 135 347 281 63 134 63 142 -3
80 -82 -77 -151 -106 -251 -106 -105 0 -155 26 -278 142 -167 159 -243 207
-369 237 -67 16 -245 19 -313 5z"/>
</g>
</svg>
