<?xml version="1.0" standalone="no"?>
<!DOCTYPE svg PUBLIC "-//W3C//DTD SVG 20010904//EN"
 "http://www.w3.org/TR/2001/REC-SVG-20010904/DTD/svg10.dtd">
<svg version="1.0" xmlns="http://www.w3.org/2000/svg"
 width="291.000000pt" height="173.000000pt" viewBox="0 0 291.000000 173.000000"
 preserveAspectRatio="xMidYMid meet">

<g transform="translate(0.000000,173.000000) scale(0.100000,-0.100000)"
fill="#000000" stroke="none">
<path d="M590 1664 c-30 -8 -93 -33 -140 -56 -68 -33 -102 -58 -171 -127 -72
-72 -94 -102 -133 -181 -84 -172 -117 -420 -82 -614 43 -234 132 -389 279
-484 211 -138 494 -158 712 -51 162 79 273 217 319 397 22 82 22 82 -27 82
-51 0 -68 -15 -87 -75 -39 -123 -134 -247 -228 -298 -110 -60 -321 -84 -447
-52 -142 37 -262 135 -333 272 -49 95 -72 179 -79 295 l-6 88 623 0 623 0 -6
113 c-13 255 -88 428 -245 560 -67 56 -173 110 -257 132 -75 19 -241 19 -315
-1z m349 -123 c194 -79 328 -274 348 -507 l6 -74 -559 2 -559 3 3 50 c5 79 29
163 71 250 67 134 171 226 315 277 76 27 89 29 201 25 94 -3 132 -9 174 -26z"/>
<path d="M1537 1642 c-16 -7 21 -59 257 -365 l276 -357 -296 -396 c-163 -217
-294 -397 -292 -400 18 -17 77 -13 118 8 38 20 78 69 293 358 136 184 251 335
255 335 4 0 111 -143 237 -317 127 -175 243 -331 260 -348 35 -36 89 -53 139
-43 l37 8 -291 384 c-210 278 -290 391 -290 410 0 19 69 115 245 344 135 175
254 332 266 348 l20 29 -28 2 c-52 2 -88 -4 -115 -20 -15 -9 -127 -148 -249
-309 -123 -162 -225 -296 -229 -298 -4 -2 -106 130 -227 293 -130 174 -234
304 -251 315 -35 20 -108 30 -135 19z"/>
</g>
</svg>
